<svg id="visual" viewBox="0 0 960 540" width="960" height="540"
    xmlns="http://www.w3.org/2000/svg"
    xmlns:xlink="http://www.w3.org/1999/xlink" version="1.1">
    <rect x="0" y="0" width="960" height="540" fill="#6c8cfe"></rect>
    <path d="M0 181L13.3 185C26.7 189 53.3 197 80 199.7C106.7 202.3 133.3 199.7 160 188.5C186.7 177.3 213.3 157.7 240 149.5C266.7 141.3 293.3 144.7 320 147.5C346.7 150.3 373.3 152.7 400 159.5C426.7 166.3 453.3 177.7 480 185.7C506.7 193.7 533.3 198.3 560 191.3C586.7 184.3 613.3 165.7 640 161.7C666.7 157.7 693.3 168.3 720 176.3C746.7 184.3 773.3 189.7 800 183C826.7 176.3 853.3 157.7 880 162.3C906.7 167 933.3 195 946.7 209L960 223L960 0L946.7 0C933.3 0 906.7 0 880 0C853.3 0 826.7 0 800 0C773.3 0 746.7 0 720 0C693.3 0 666.7 0 640 0C613.3 0 586.7 0 560 0C533.3 0 506.7 0 480 0C453.3 0 426.7 0 400 0C373.3 0 346.7 0 320 0C293.3 0 266.7 0 240 0C213.3 0 186.7 0 160 0C133.3 0 106.7 0 80 0C53.3 0 26.7 0 13.3 0L0 0Z" fill="#6cfedf"></path>
    <path d="M0 111L13.3 115.2C26.7 119.3 53.3 127.7 80 139.7C106.7 151.7 133.3 167.3 160 163.3C186.7 159.3 213.3 135.7 240 129C266.7 122.3 293.3 132.7 320 132.5C346.7 132.3 373.3 121.7 400 121.2C426.7 120.7 453.3 130.3 480 139.7C506.7 149 533.3 158 560 152.8C586.7 147.7 613.3 128.3 640 122.7C666.7 117 693.3 125 720 136.3C746.7 147.7 773.3 162.3 800 160.7C826.7 159 853.3 141 880 131.7C906.7 122.3 933.3 121.7 946.7 121.3L960 121L960 0L946.7 0C933.3 0 906.7 0 880 0C853.3 0 826.7 0 800 0C773.3 0 746.7 0 720 0C693.3 0 666.7 0 640 0C613.3 0 586.7 0 560 0C533.3 0 506.7 0 480 0C453.3 0 426.7 0 400 0C373.3 0 346.7 0 320 0C293.3 0 266.7 0 240 0C213.3 0 186.7 0 160 0C133.3 0 106.7 0 80 0C53.3 0 26.7 0 13.3 0L0 0Z" fill="#9bd57d"></path>
    <path d="M0 86L13.3 90.8C26.7 95.7 53.3 105.3 80 105.3C106.7 105.3 133.3 95.7 160 93.2C186.7 90.7 213.3 95.3 240 102.8C266.7 110.3 293.3 120.7 320 123.7C346.7 126.7 373.3 122.3 400 120.7C426.7 119 453.3 120 480 115.2C506.7 110.3 533.3 99.7 560 92.7C586.7 85.7 613.3 82.3 640 91.5C666.7 100.7 693.3 122.3 720 132.7C746.7 143 773.3 142 800 131.5C826.7 121 853.3 101 880 95.3C906.7 89.7 933.3 98.3 946.7 102.7L960 107L960 0L946.7 0C933.3 0 906.7 0 880 0C853.3 0 826.7 0 800 0C773.3 0 746.7 0 720 0C693.3 0 666.7 0 640 0C613.3 0 586.7 0 560 0C533.3 0 506.7 0 480 0C453.3 0 426.7 0 400 0C373.3 0 346.7 0 320 0C293.3 0 266.7 0 240 0C213.3 0 186.7 0 160 0C133.3 0 106.7 0 80 0C53.3 0 26.7 0 13.3 0L0 0Z" fill="#c3a23b"></path>
    <path d="M0 97L13.3 97.3C26.7 97.7 53.3 98.3 80 91.2C106.7 84 133.3 69 160 66.7C186.7 64.3 213.3 74.7 240 81.3C266.7 88 293.3 91 320 93.7C346.7 96.3 373.3 98.7 400 93.5C426.7 88.3 453.3 75.7 480 74C506.7 72.3 533.3 81.7 560 86.2C586.7 90.7 613.3 90.3 640 85.2C666.7 80 693.3 70 720 66.3C746.7 62.7 773.3 65.3 800 65.2C826.7 65 853.3 62 880 64C906.7 66 933.3 73 946.7 76.5L960 80L960 0L946.7 0C933.3 0 906.7 0 880 0C853.3 0 826.7 0 800 0C773.3 0 746.7 0 720 0C693.3 0 666.7 0 640 0C613.3 0 586.7 0 560 0C533.3 0 506.7 0 480 0C453.3 0 426.7 0 400 0C373.3 0 346.7 0 320 0C293.3 0 266.7 0 240 0C213.3 0 186.7 0 160 0C133.3 0 106.7 0 80 0C53.3 0 26.7 0 13.3 0L0 0Z" fill="#d7653d"></path>
    <path d="M0 25L13.3 30.8C26.7 36.7 53.3 48.3 80 54.7C106.7 61 133.3 62 160 55.8C186.7 49.7 213.3 36.3 240 30.5C266.7 24.7 293.3 26.3 320 27.7C346.7 29 373.3 30 400 34.5C426.7 39 453.3 47 480 49.3C506.7 51.7 533.3 48.3 560 43.8C586.7 39.3 613.3 33.7 640 36.8C666.7 40 693.3 52 720 53.7C746.7 55.3 773.3 46.7 800 46.2C826.7 45.7 853.3 53.3 880 56.8C906.7 60.3 933.3 59.7 946.7 59.3L960 59L960 0L946.7 0C933.3 0 906.7 0 880 0C853.3 0 826.7 0 800 0C773.3 0 746.7 0 720 0C693.3 0 666.7 0 640 0C613.3 0 586.7 0 560 0C533.3 0 506.7 0 480 0C453.3 0 426.7 0 400 0C373.3 0 346.7 0 320 0C293.3 0 266.7 0 240 0C213.3 0 186.7 0 160 0C133.3 0 106.7 0 80 0C53.3 0 26.7 0 13.3 0L0 0Z" fill="#c62368"></path>
</svg>