<svg id="visual" viewBox="0 0 960 540" width="960" height="540"
    xmlns="http://www.w3.org/2000/svg"
    xmlns:xlink="http://www.w3.org/1999/xlink" version="1.1">
    <rect x="0" y="0" width="960" height="540" fill="#001220"></rect>
    <path d="M0 315L16 322.2C32 329.3 64 343.7 96 343.5C128 343.3 160 328.7 192 324.8C224 321 256 328 288 331.8C320 335.7 352 336.3 384 336.3C416 336.3 448 335.7 480 346C512 356.3 544 377.7 576 379C608 380.3 640 361.7 672 361.7C704 361.7 736 380.3 768 385.5C800 390.7 832 382.3 864 372.8C896 363.3 928 352.7 944 347.3L960 342L960 541L944 541C928 541 896 541 864 541C832 541 800 541 768 541C736 541 704 541 672 541C640 541 608 541 576 541C544 541 512 541 480 541C448 541 416 541 384 541C352 541 320 541 288 541C256 541 224 541 192 541C160 541 128 541 96 541C64 541 32 541 16 541L0 541Z" fill="#6c8cfe"></path>
    <path d="M0 393L16 397.7C32 402.3 64 411.7 96 417C128 422.3 160 423.7 192 416.8C224 410 256 395 288 390.2C320 385.3 352 390.7 384 388.2C416 385.7 448 375.3 480 379.7C512 384 544 403 576 408.2C608 413.3 640 404.7 672 397.5C704 390.3 736 384.7 768 383.2C800 381.7 832 384.3 864 380.5C896 376.7 928 366.3 944 361.2L960 356L960 541L944 541C928 541 896 541 864 541C832 541 800 541 768 541C736 541 704 541 672 541C640 541 608 541 576 541C544 541 512 541 480 541C448 541 416 541 384 541C352 541 320 541 288 541C256 541 224 541 192 541C160 541 128 541 96 541C64 541 32 541 16 541L0 541Z" fill="#9d72e2"></path>
    <path d="M0 445L16 439.7C32 434.3 64 423.7 96 420.8C128 418 160 423 192 424.7C224 426.3 256 424.7 288 423.8C320 423 352 423 384 424.5C416 426 448 429 480 428.3C512 427.7 544 423.3 576 418.8C608 414.3 640 409.7 672 407.8C704 406 736 407 768 411.3C800 415.7 832 423.3 864 427.7C896 432 928 433 944 433.5L960 434L960 541L944 541C928 541 896 541 864 541C832 541 800 541 768 541C736 541 704 541 672 541C640 541 608 541 576 541C544 541 512 541 480 541C448 541 416 541 384 541C352 541 320 541 288 541C256 541 224 541 192 541C160 541 128 541 96 541C64 541 32 541 16 541L0 541Z" fill="#b957bd"></path>
    <path d="M0 474L16 473.2C32 472.3 64 470.7 96 469.7C128 468.7 160 468.3 192 464.7C224 461 256 454 288 448.8C320 443.7 352 440.3 384 440.3C416 440.3 448 443.7 480 446.3C512 449 544 451 576 452.3C608 453.7 640 454.3 672 459C704 463.7 736 472.3 768 471C800 469.7 832 458.3 864 458.7C896 459 928 471 944 477L960 483L960 541L944 541C928 541 896 541 864 541C832 541 800 541 768 541C736 541 704 541 672 541C640 541 608 541 576 541C544 541 512 541 480 541C448 541 416 541 384 541C352 541 320 541 288 541C256 541 224 541 192 541C160 541 128 541 96 541C64 541 32 541 16 541L0 541Z" fill="#c63b93"></path>
    <path d="M0 510L16 510.3C32 510.7 64 511.3 96 509C128 506.7 160 501.3 192 499C224 496.7 256 497.3 288 497.8C320 498.3 352 498.7 384 500.5C416 502.3 448 505.7 480 503.8C512 502 544 495 576 494C608 493 640 498 672 501.3C704 504.7 736 506.3 768 506C800 505.7 832 503.3 864 502.7C896 502 928 503 944 503.5L960 504L960 541L944 541C928 541 896 541 864 541C832 541 800 541 768 541C736 541 704 541 672 541C640 541 608 541 576 541C544 541 512 541 480 541C448 541 416 541 384 541C352 541 320 541 288 541C256 541 224 541 192 541C160 541 128 541 96 541C64 541 32 541 16 541L0 541Z" fill="#c62368"></path>
</svg>